<?xml version="1.0" standalone="no"?><!DOCTYPE svg PUBLIC "-//W3C//DTD SVG 1.1//EN" "http://www.w3.org/Graphics/SVG/1.1/DTD/svg11.dtd"><svg t="1542708332198" class="icon" style="" viewBox="0 0 1024 1024" version="1.1" xmlns="http://www.w3.org/2000/svg" p-id="2611" xmlns:xlink="http://www.w3.org/1999/xlink" width="200" height="200"><defs><style type="text/css"></style></defs><path d="M709.254038 957.195501c-15.286148 0-29.522384-5.878894-40.166815-16.564257L279.38971 550.240953c-1.425466-1.39272-2.537799-2.577708-3.449565-3.846608l-2.304486-2.905166c-11.362792-11.416004-16.945951-24.848944-16.945951-39.068807 0-14.475689 5.708002-28.010961 16.056698-38.110993l392.376529-388.216789c10.612709-10.467399 24.785499-16.236799 39.892569-16.236799 14.772448 0 28.726252 5.599532 39.287795 15.753799 10.497075 10.18599 16.538675 24.390503 16.538675 38.95215 0 14.382569-5.722328 28.009937-16.142655 38.366819L390.732587 505.098823 749.217215 864.526939c10.249435 10.30981 15.909341 23.781636 15.909341 37.994336 0 14.889105-6.05081 28.859281-16.999163 39.333844C737.70809 951.744349 723.878107 957.195501 709.254038 957.195501z" p-id="2612" fill="#2c2c2c"></path></svg>